<svg width="1024" height="1024" viewBox="0 0 1024 1024" fill="none" xmlns="http://www.w3.org/2000/svg">
<path d="M449.565 417.625V480.875H386V417.625H449.565Z" fill="#212121"/>
<path d="M639 417.625V480.875H512.5V417.625H639Z" fill="#212121"/>
<path d="M544.125 544.125V607.375H386V544.125H544.125Z" fill="#212121"/>
<path d="M797.125 512.5C797.125 355.306 669.693 227.875 512.5 227.875C355.306 227.875 227.875 355.306 227.875 512.5C227.875 564.394 241.735 612.956 265.934 654.79L272.754 666.581L236.511 788.488L358.419 752.247L370.21 759.067C412.043 783.265 460.606 797.125 512.5 797.125C669.693 797.125 797.125 669.693 797.125 512.5ZM860.375 512.5C860.375 704.625 704.625 860.375 512.5 860.375C454.139 860.375 399.058 845.978 350.696 820.528L203.02 864.432L160.568 821.98L204.472 674.303C179.021 625.94 164.625 570.86 164.625 512.5C164.625 320.374 320.374 164.625 512.5 164.625C704.624 164.625 860.375 320.374 860.375 512.5Z" fill="#212121"/>
</svg>
